# xmcd
#
# Track frame offsets: 
#        150
#        16085
#        35778
#        56913
#        63238
#        83453
#        102713
#        124048
#        150610
#        170283
#        185755
#        202198
#        220903
#        244625
#
# Disc length: 3308 seconds
#
# Revision: 6
# Processed by: cddbd v1.5.2PL0 Copyright (c) Steve Scherf et al.
# Submitted via: ExactAudioCopy v1.0b3
#
DISCID=c30cea0e
DTITLE=YELLOW MAGIC ORCHESTRA - SERVICE (紙ジャケット仕様) 1999 Remastering MH
DTITLE=CL-212
DYEAR=1983
DGENRE=Techno
TTITLE0=LIMBO
TTITLE1=S.E.T.
TTITLE2=THE MADMEN
TTITLE3=S.E.T.
TTITLE4=CHINESE WHISPERS
TTITLE5=S.E.T.
TTITLE6=????
TTITLE7=S.E.T.+YMO
TTITLE8=SHADOWS ON THE GROUND
TTITLE9=S.E.T.
TTITLE10=SEE-THROUGH
TTITLE11=S.E.T.
TTITLE12=PERSPECTIVE
TTITLE13=S.E.T.
EXTD=YEAR: 1983
EXTT0=
EXTT1=
EXTT2=
EXTT3=
EXTT4=
EXTT5=
EXTT6=
EXTT7=
EXTT8=
EXTT9=
EXTT10=
EXTT11=
EXTT12=
EXTT13=
PLAYORDER=
